<?xml version="1.0" encoding="utf-8"?>
<!-- Generator: Adobe Illustrator 16.0.0, SVG Export Plug-In . SVG Version: 6.00 Build 0)  -->
<!DOCTYPE svg PUBLIC "-//W3C//DTD SVG 1.1//EN" "http://www.w3.org/Graphics/SVG/1.1/DTD/svg11.dtd">
<svg version="1.1" id="Layer_1" xmlns="http://www.w3.org/2000/svg" xmlns:xlink="http://www.w3.org/1999/xlink" x="0px" y="0px"
	 width="250px" height="250px" viewBox="0 0 250 250" enable-background="new 0 0 250 250" xml:space="preserve">
<g>
	<path d="M123.792,208.467h2.04c-0.347-3.063-0.697-6.166-0.992-9.303C124.537,202.301,124.19,205.404,123.792,208.467"/>
	<path d="M133.203,195.58h-0.948v6.194h0.975c0.866,0,1.265-0.422,1.265-1.366v-3.463
		C134.494,196.026,134.122,195.58,133.203,195.58"/>
	<path d="M164.358,208.467h2.04c-0.347-3.063-0.693-6.166-0.992-9.303C165.107,202.301,164.757,205.404,164.358,208.467"/>
	<path d="M188.102,195.58h-0.874v6.862h0.9c0.871,0,1.243-0.422,1.243-1.315v-3.709C189.371,196.177,189.198,195.58,188.102,195.58"
		/>
	<path d="M198.853,213.742h-5.648v-20.477h5.519v2.318h-3.228v6.563h2.166v2.318h-2.166v6.988h3.357V213.742z M189.371,213.742
		c-0.347-3.087-0.701-6.148-1.191-9.211h-0.952v9.211h-2.309v-20.477h3.188c2.382,0,3.604,0.994,3.604,3.685v4.156
		c0,1.537-0.425,2.439-1.347,2.953c0.602,3.237,1.069,6.524,1.52,9.683H189.371z M183.225,210.484c0,2.335-1.096,3.483-3.261,3.483
		c-2.161,0-3.258-1.148-3.258-3.483v-17.219h2.287v17.219c0,0.793,0.352,1.19,0.971,1.19c0.649,0,0.975-0.397,0.975-1.19v-17.219
		h2.286V210.484z M175.637,195.584h-2.144v18.158h-2.287v-18.158h-2.145v-2.318h6.575V195.584z M167.021,213.742l-0.368-3.158
		h-2.516c-0.152,1.065-0.277,2.109-0.403,3.158h-2.239l2.664-20.477h2.663l2.517,20.477H167.021z M160.798,213.742h-5.648v-20.477
		h5.527v2.318h-3.24v6.563h2.17v2.318h-2.17v6.988h3.361V213.742z M154.059,195.584h-3.361v6.662h2.188v2.318h-2.188v9.178h-2.287
		v-20.477h5.648V195.584z M145.625,44.542h37.31v15.284h-22.193v44.048h14.471v15.284h-14.471v60.648h-15.116V44.542z
		 M143.677,213.742h-5.648v-20.477h5.526v2.318h-3.239v6.563h2.17v2.318h-2.17v6.988h3.361V213.742z M136.76,200.333
		c0,2.561-1.122,3.676-3.535,3.676h-0.974v9.733h-2.287v-20.477h3.239c2.435,0,3.557,1.17,3.557,3.709V200.333z M126.455,213.742
		l-0.372-3.158h-2.512c-0.147,1.065-0.277,2.109-0.398,3.158h-2.244l2.668-20.477h2.659l2.513,20.477H126.455z M119.785,213.742
		h-2.295v-9.277h-1.936v9.277h-2.287v-20.477h2.287v8.905h1.936v-8.905h2.295V213.742z M111.72,210.584
		c0,2.16-0.944,3.384-3.231,3.384c-2.261,0-3.261-1.224-3.261-3.384v-4.356h2.217v4.356c0,0.669,0.321,1.091,0.97,1.091
		c0.697,0,1.018-0.372,1.018-1.091v-2.916c0-0.868-0.173-1.365-0.728-2.059c-0.914-1.17-1.858-2.118-2.859-3.534
		c-0.494-0.697-0.619-1.566-0.619-2.586v-3.062c0-2.293,1.07-3.384,3.261-3.384c2.287,0,3.153,1.091,3.153,3.384v3.734h-2.135
		v-3.709c0-0.647-0.277-1.099-0.975-1.099c-0.667,0-0.966,0.33-0.966,1.073v3.032c0,0.543,0.069,0.974,0.398,1.396
		c0.914,1.194,1.992,2.285,2.884,3.534c0.698,0.969,0.871,1.862,0.871,3.254V210.584z M100.767,213.742h-5.639v-20.477h5.518v2.318
		H97.41v6.563h2.166v2.318H97.41v6.988h3.356V213.742z M93.979,195.584h-2.144v18.158h-2.287v-18.158h-2.14v-2.318h6.57V195.584z
		 M86.213,213.742h-2.287v-20.469h2.287V213.742z M82.181,179.807h-15.12V44.542h15.12V179.807z M82.129,213.742H79.89
		c-1.542-7.068-2.313-10.401-3.01-13.739c0.052,2.815,0.052,5.631,0.052,8.442v5.297H74.97v-20.477h2.686
		c1.338,7.59,1.936,10.719,2.555,13.905c-0.043-2.339-0.043-4.648-0.043-6.938v-6.968h1.962V213.742z M73.198,213.742h-2.287
		v-20.469h2.287V213.742z M69.759,195.584h-3.357v6.662h2.183v2.318h-2.183v9.178h-2.291v-20.477h5.648V195.584z M62.37,213.742
		h-2.239c-1.546-7.068-2.317-10.401-3.015-13.739c0.052,2.815,0.052,5.631,0.052,8.442v5.297h-1.962v-20.477h2.686
		c1.343,7.59,1.936,10.719,2.56,13.905c-0.052-2.339-0.052-4.648-0.052-6.938v-6.968h1.971V213.742z M53.435,213.742h-2.287v-20.469
		h2.287V213.742z M92.537,130.169h14.631v28.765c0,4.44,2.131,7.234,6.406,7.234c4.6,0,6.739-2.464,6.739-7.234v-19.228
		c0-5.752-1.147-9.04-4.769-13.639c-6.077-7.728-12.327-13.977-18.902-23.342c-3.283-4.603-4.106-10.351-4.106-17.093V65.419
		c0-15.125,7.069-22.356,21.535-22.356c15.12,0,20.872,7.231,20.872,22.356v24.649h-14.137V65.578c0-4.273-1.81-7.227-6.415-7.227
		c-4.435,0-6.406,2.134-6.406,7.068v20.046c0,3.622,0.494,6.412,2.625,9.207c6.085,7.887,13.154,15.122,19.07,23.338
		c4.604,6.412,5.752,12.332,5.752,21.534v19.391c0,14.303-6.241,22.36-21.361,22.36c-14.96,0-21.535-8.058-21.535-22.36V130.169z
		 M125,0C55.964,0,0,55.966,0,125.002S55.964,250,125,250c69.036,0,125-55.962,125-124.998S194.036,0,125,0"/>
</g>
</svg>
